HIERARCHY
ROOT Hips
{
	OFFSET 0.00000 0.00000 0.00000
	CHANNELS 6 Xposition Yposition Zposition Zrotation Yrotation Xrotation 
	JOINT LHipJoint
	{
		OFFSET 0 0 0
		CHANNELS 3 Zrotation Yrotation Xrotation
		JOINT LeftHip
		{
			OFFSET 1.62329 -1.80800 0.67318
			CHANNELS 3 Zrotation Yrotation Xrotation
			JOINT LeftKnee
			{
				OFFSET 2.57139 -7.06484 0.00000
				CHANNELS 3 Zrotation Yrotation Xrotation
				JOINT LeftAnkle
				{
					OFFSET 2.52017 -6.92413 0.00000
					CHANNELS 3 Zrotation Yrotation Xrotation
					JOINT LeftToe
					{
						OFFSET 0.23295 -0.64001 2.10214
						CHANNELS 3 Zrotation Yrotation Xrotation
						End Site
						{
							OFFSET 0.00000 -0.00000 1.10139
						}
					}
				}
			}
		}
	}
	JOINT RHipJoint
	{
		OFFSET 0 0 0
		CHANNELS 3 Zrotation Yrotation Xrotation
		JOINT RightHip
		{
			OFFSET -1.48061 -1.80800 0.67318
			CHANNELS 3 Zrotation Yrotation Xrotation
			JOINT RightKnee
			{
				OFFSET -2.63258 -7.23296 0.00000
				CHANNELS 3 Zrotation Yrotation Xrotation
				JOINT RightAnkle
				{
					OFFSET -2.54779 -7.00000 0.00000
					CHANNELS 3 Zrotation Yrotation Xrotation
					JOINT RightToe
					{
						OFFSET -0.23067 -0.63376 2.12161
						CHANNELS 3 Zrotation Yrotation Xrotation
						End Site
						{
							OFFSET -0.00000 -0.00000 1.11000
						}
					}
				}
			}
		}
	}
	JOINT lowerback
	{
		OFFSET 0 0 0
		CHANNELS 3 Zrotation Yrotation Xrotation
		JOINT Chest
		{
			OFFSET -0.02108 2.07573 -0.16981
			CHANNELS 3 Zrotation Yrotation Xrotation
			JOINT Chest2
			{
				OFFSET 0.05070 2.08439 -0.03141
				CHANNELS 3 Zrotation Yrotation Xrotation
				JOINT lowerneck
				{
					OFFSET 0 0 0
					CHANNELS 3 Zrotation Yrotation Xrotation
					JOINT Neck
					{
						OFFSET -0.10731 1.60408 0.31370
						CHANNELS 3 Zrotation Yrotation Xrotation
						JOINT Head
						{
							OFFSET 0.08411 1.65679 -0.30822
							CHANNELS 3 Zrotation Yrotation Xrotation
							End Site
							{
								OFFSET 0.03911 1.69149 -0.14146
							}
						}
					}
				}
				JOINT LeftCollar
				{
					OFFSET 0 0 0
					CHANNELS 3 Zrotation Yrotation Xrotation
					JOINT LeftShoulder
					{
						OFFSET 3.52315 0.73219 -0.54694
CHANNELS 3 Zrotation Xrotation Yrotation
						JOINT LeftElbow
						{
OFFSET 0 -5.324620 -0.000000
CHANNELS 3 Zrotation Xrotation Yrotation
							JOINT LeftWrist
							{
OFFSET 0 -3.484020 -0.000000
CHANNELS 3 Zrotation Xrotation Yrotation
								JOINT lhand
								{
									OFFSET 0 0 0
CHANNELS 3 Zrotation Xrotation Yrotation
									JOINT LFingers
									{
OFFSET 0 -0.572480 -0.000000
CHANNELS 3 Zrotation Xrotation Yrotation
										End Site
										{
OFFSET 0 -0.461540 -0.000000
										}
									}
								}
								JOINT LThumb
								{
OFFSET 0 0.000000 0.000000
CHANNELS 3 Zrotation Xrotation Yrotation
									End Site
									{
OFFSET 0 -0.468590 0.468590
									}
								}
							}
						}
					}
				}
				JOINT RightCollar
				{
					OFFSET 0 0 0
					CHANNELS 3 Zrotation Yrotation Xrotation
					JOINT RightShoulder
					{
						OFFSET -3.41766 0.93592 -0.10019
CHANNELS 3 Zrotation Xrotation Yrotation
						JOINT RightElbow
						{
OFFSET 0 -5.335890 -0.000000
CHANNELS 3 Zrotation Xrotation Yrotation
							JOINT RightWrist
							{
OFFSET 0 -3.641340 -0.000000
CHANNELS 3 Zrotation Xrotation Yrotation
								JOINT rhand
								{
									OFFSET 0 0 0
CHANNELS 3 Zrotation Xrotation Yrotation
									JOINT RFingers
									{
OFFSET 0 -0.734810 -0.000000
CHANNELS 3 Zrotation Xrotation Yrotation
										End Site
										{
OFFSET 0 -0.592420 -0.000000
										}
									}
								}
								JOINT RThumb
								{
OFFSET 0 0.000000 0.000000
CHANNELS 3 Zrotation Xrotation Yrotation
									End Site
									{
OFFSET 0 -0.601470 0.601470
									}
								}
							}
						}
					}
				}
			}
		}
	}
}
MOTION
Frames: 12
Frame Time: .02
-2.0062 16.1014 -0.7486 1.3173 2.5209 4.0657 0.0000 0.0000 0.0000 -18.8182 1.0437 -29.3269 10.5284 17.6964 61.2402 2.4413 -11.4916 -28.1532 1.4400 -7.5866 -21.4652 0.0000 0.0000 0.0000 18.7519 8.5093 -26.1411 -11.1972 -18.0302 63.4203 -3.4659 7.7752 -33.8509 -0.1012 2.0518 -5.6488 -3.8048 -0.5577 11.0928 1.0354 -1.1511 0.9599 3.4087 -0.4735 -5.1219 -9.6503 -1.6213 -27.1564 6.5696 -0.0414 17.1352 3.9127 0.1407 9.8766 -0.0000 0.0000 0.0000 -4.097 -5.1754 13.9601 14.8111 -23.8823 3.1491 30.2443 -26.5566 -44.2426 0.0 0.0 0.0 -7.1250 0.0 0.0 -17.8880 77.8916 13.8127 -0.0000 0.0000 0.0000 -1.778 -2.6398 -5.5283 -15.5003 -24.8384 -3.4334 -16.5016 -1.5198 16.7172 0.0 0.0 0.0 7.1250 0.0 -0.0 10.8109 47.0792 -0.561
-1.9782 16.2499 -0.6973 1.4612 1.9658 3.8923 0.0000 0.0000 0.0000 -19.7967 2.9099 -28.1372 9.7348 17.2580 58.5981 2.3802 -10.2826 -27.7509 1.3500 -7.3556 -20.7733 0.0000 0.0000 0.0000 18.7272 6.9270 -24.7065 -10.2293 -17.5368 60.2520 -3.3354 8.4392 -33.1198 -0.0322 1.1583 -3.1844 -3.6895 -0.3494 10.6703 1.1443 -0.8434 0.6706 3.4076 -0.3166 -5.2168 -9.5284 -1.4432 -27.0819 5.7895 0.3200 17.8792 3.6827 0.2014 10.1015 0.0000 -0.0000 0.0000 -0.5489 -4.9934 18.6448 16.2346 -25.8377 3.7476 32.9043 -27.6266 -42.9274 0.0 0.0 0.0 -7.1250 0.0 0.0 -10.1051 77.7434 7.7432 0.0000 -0.0000 0.0000 -5.4415 -2.5014 -10.6206 -16.7385 -26.5118 -3.9699 -20.9638 -1.411 18.488 0.0 0.0 0.0 7.1250 0.0 -0.0 7.0861 49.5488 -0.7983
-1.9330 16.7174 -0.6240 1.4208 1.3770 3.7355 0.0000 0.0000 0.0000 -19.8117 2.5836 -25.1840 8.2233 16.2811 53.3632 1.5333 -10.4127 -22.2870 1.2931 -7.2051 -20.3244 0.0000 0.0000 0.0000 18.2926 6.5940 -22.6009 -8.9675 -16.7867 55.9775 -2.2644 8.5117 -27.0556 -0.0085 0.5967 -1.6397 -3.4199 -0.2476 9.9399 1.4201 -0.6402 0.4124 3.5059 -0.2185 -5.0960 -9.3971 -1.2706 -27.6354 5.2799 0.6781 18.7065 3.5595 0.2953 10.4704 -0.0000 -0.0000 0.0000 5.1238 -4.4456 23.1165 17.7876 -27.8844 4.4495 29.8478 -29.872 -40.9951 0.0 0.0 0.0 -7.1250 0.0 0.0 -11.7725 74.7708 8.2934 -0.0000 -0.0000 0.0000 -11.9366 -2.1982 -15.5021 -18.2086 -28.4235 -4.6481 -23.2194 -2.8012 17.6028 0.0 0.0 0.0 7.1250 0.0 -0.0 4.6734 48.9698 -0.4585
-1.9094 17.3897 -0.5669 1.5232 2.1638 3.6539 0.0000 0.0000 0.0000 -19.4921 1.6074 -22.0064 6.5783 14.9662 47.2608 0.2936 -11.2639 -11.6798 1.9592 -8.7806 -25.1114 0.0000 0.0000 0.0000 17.7627 4.7262 -21.0063 -7.5827 -15.8036 51.0452 -1.0015 6.1684 -17.8581 -0.0148 -0.7844 2.1559 -3.3584 -0.6075 9.1427 1.5643 -1.0813 0.3029 3.6668 -0.4432 -4.7238 -8.6976 -1.2522 -28.3244 4.6687 0.6423 18.8995 3.2275 0.2513 10.6684 0.0000 -0.0000 0.0000 12.1524 -3.2627 25.49 19.6302 -30.1942 5.3441 28.391 -29.157 -38.7048 0.0 0.0 0.0 -7.1250 0.0 0.0 -10.6572 72.0614 6.8796 0.0000 -0.0000 0.0000 -19.0451 -2.3132 -20.1093 -19.6282 -30.1918 -5.3431 -24.5454 -2.9201 16.6729 0.0 0.0 0.0 7.1250 0.0 -0.0 3.1905 48.1782 -0.2504
-1.8945 18.1308 -0.4970 1.5390 2.2377 3.6576 0.0000 0.0000 0.0000 -18.7248 2.5946 -19.9836 5.0190 13.4051 40.9045 -0.3514 -10.5026 2.6426 1.8405 -8.5257 -24.3224 0.0000 0.0000 0.0000 16.9278 3.4518 -19.5764 -6.1851 -14.6054 45.7203 -0.1694 0.5905 -7.5850 -0.0152 -0.7956 2.1866 -3.2870 -0.6908 8.1188 1.7030 -1.1500 0.2065 3.7572 -0.4872 -4.2423 -8.9864 -1.6134 -29.1434 4.8953 0.2835 19.3060 3.3175 0.0922 10.9880 0.0000 -0.0000 0.0000 19.8386 -2.1079 27.0296 21.4678 -32.3703 6.2985 29.4519 -26.2569 -37.5718 0.0 0.0 0.0 -7.1250 0.0 0.0 -7.7501 71.3059 4.8662 0.0000 -0.0000 0.0000 -26.7465 -2.3486 -23.9791 -21.1165 -31.9641 -6.1115 -25.7392 -2.8652 15.1101 0.0 0.0 0.0 7.1250 0.0 -0.0 1.7684 46.6583 -0.0724
-1.8712 18.7705 -0.3999 1.5817 2.1718 3.5823 0.0000 0.0000 0.0000 -17.5178 3.1758 -17.4330 3.4642 11.4110 33.6790 0.1670 -8.1864 14.5470 1.7956 -8.4266 -24.0175 0.0000 0.0000 0.0000 15.6702 2.4761 -18.1828 -4.9238 -13.2974 40.4923 0.1031 -6.6455 1.2413 -0.1990 -2.8729 7.9250 -2.9641 -0.7325 7.0501 1.5913 -1.1561 -0.2874 3.4412 -0.4927 -4.1635 -9.2773 -2.0390 -28.7411 5.3005 -0.3374 19.8572 3.4209 -0.1725 11.1770 -0.0000 -0.0000 0.0000 28.5894 -0.3814 27.7423 23.3742 -34.4955 7.3491 27.9394 -26.4138 -36.9404 0.0 0.0 0.0 -7.1250 0.0 0.0 -9.2422 70.1837 5.5778 -0.0000 -0.0000 0.0000 -34.8273 -1.8103 -26.7095 -22.8644 -33.9402 -7.0625 -25.7889 -3.2126 14.6137 0.0 0.0 0.0 7.1250 0.0 -0.0 1.6440 46.1229 -0.0456
-1.8445 19.2005 -0.3325 1.5578 2.2541 3.7285 0.0000 0.0000 0.0000 -15.9141 0.7311 -14.3307 2.5874 9.9951 28.9610 0.0259 -6.6670 10.1272 2.3725 -9.6023 -27.6981 0.0000 0.0000 0.0000 14.2687 2.5230 -17.0488 -4.2835 -12.5284 37.6280 0.1265 -7.4030 1.4505 -0.3248 -3.6632 10.1310 -2.5252 -0.8902 5.8112 1.5093 -1.3092 -0.7428 3.1005 -0.5778 -3.9374 -9.5510 -2.3004 -28.2834 5.5333 -0.7046 20.3874 3.4996 -0.3445 11.3308 -0.0000 0.0000 0.0000 38.7481 0.5154 28.2035 24.2447 -35.422 7.848 26.3915 -26.2055 -35.7163 0.0 0.0 0.0 -7.1250 0.0 0.0 -10.1105 68.4832 5.7197 -0.0000 0.0000 0.0000 -43.8524 -2.5304 -30.2044 -24.4111 -35.596 -7.9446 -23.8217 -2.8335 13.9274 0.0 0.0 0.0 7.1250 0.0 -0.0 3.3729 45.12 -0.01
-1.8329 19.4657 -0.3185 2.1064 2.2019 3.5863 0.0000 0.0000 0.0000 -14.7324 -2.4974 -11.0299 2.1108 9.0932 26.0873 -0.0072 -2.2239 2.5495 2.2962 -9.4575 -27.2373 0.0000 0.0000 0.0000 11.9230 3.9255 -15.5223 -4.0812 -12.2676 36.6854 0.0533 -4.1653 -2.3561 -0.1145 -2.1813 6.0069 -2.9432 -0.8831 5.6357 1.3917 -1.3333 -1.2552 3.2206 -0.5662 -4.3636 -9.5385 -2.5060 -27.8066 5.0124 -0.9137 20.9557 3.2735 -0.5256 11.4798 0.0000 0.0000 0.0000 50.0058 0.9525 27.7849 24.1277 -35.299 7.7802 25.61 -23.4715 -33.6136 0.0 0.0 0.0 -7.1250 0.0 0.0 -9.2618 66.1554 4.7449 0.0000 0.0000 0.0000 -54.0597 -3.0741 -32.3648 -26.0742 -37.2819 -8.9326 -24.163 -3.0883 13.3026 0.0 0.0 0.0 7.1250 0.0 -0.0 2.9579 44.4878 0.0374
-1.8293 19.5654 -0.3256 2.8840 2.2424 2.7429 0.0000 0.0000 0.0000 -13.7284 -3.9340 -7.8472 1.7753 8.3814 23.8786 0.0015 1.4114 1.1590 2.1312 -9.1343 -26.2162 0.0000 0.0000 0.0000 9.2230 4.8969 -13.3635 -3.9387 -12.0784 36.0100 0.0711 -4.7630 -1.1006 -0.0667 -1.6664 4.5846 -3.6914 -0.8955 6.1777 1.2867 -1.4298 -1.3791 3.5587 -0.5837 -4.7792 -10.0752 -2.6143 -27.2007 5.0840 -0.9369 21.4326 3.3918 -0.5882 11.5600 -0.0000 0.0000 0.0000 61.6966 0.9609 27.5484 23.5655 -34.7014 7.4577 26.1282 -17.1404 -32.715 0.0 0.0 0.0 -7.1250 0.0 0.0 -7.9185 65.3989 3.9144 -0.0000 0.0000 0.0000 -64.9885 -4.2088 -34.7513 -27.4349 -38.5908 -9.7692 -25.4065 -1.7612 13.0137 0.0 0.0 0.0 7.1250 0.0 -0.0 1.7713 44.3246 0.0295
-1.8373 19.4763 -0.3485 3.1623 2.6661 1.9848 0.0000 0.0000 0.0000 -11.8473 -4.8785 -5.7233 1.6762 8.1563 23.1900 0.0412 1.7931 3.6284 1.9124 -8.6812 -24.8031 0.0000 0.0000 0.0000 7.1116 6.4567 -10.9538 -3.7977 -11.8863 35.3308 0.1862 -8.1246 0.0187 -0.0750 -1.7663 4.8603 -4.1442 -0.9964 6.7129 1.3429 -1.6225 -1.5516 3.9116 -0.6496 -5.2348 -10.1895 -2.5116 -26.2975 4.8879 -0.8013 21.7744 3.3617 -0.5796 11.5153 0.0000 0.0000 0.0000 73.0172 0.2181 28.9688 23.2038 -34.3109 7.2528 24.594 -11.4414 -32.1646 0.0 0.0 0.0 -7.1250 0.0 0.0 -9.4129 64.4132 4.4435 0.0000 0.0000 0.0000 -76.0632 -5.9134 -37.965 -28.2138 -39.3123 -10.2589 -26.9578 1.1496 13.0984 0.0 0.0 0.0 7.1250 0.0 -0.0 0.3482 44.6095 0.0034
-1.8542 19.1824 -0.3840 3.1683 3.3274 1.1323 0.0000 0.0000 0.0000 -9.5147 -6.0888 -4.1341 1.7310 8.2818 23.5734 0.1285 -1.0078 7.2169 1.7468 -8.3174 -23.6825 0.0000 0.0000 0.0000 5.4746 9.1928 -7.8465 -3.7130 -11.7684 34.9175 0.2933 -10.1940 0.0698 -0.0866 -1.8978 5.2233 -4.4924 -1.1779 7.3207 1.5735 -1.9098 -1.5415 4.4025 -0.7681 -5.5246 -10.8862 -2.4872 -25.8917 5.4288 -0.6989 22.6491 3.7205 -0.5482 11.7721 -0.0000 0.0000 0.0000 83.0804 -1.1263 32.448 23.9891 -35.1527 7.7003 24.0714 -6.7712 -32.2683 0.0 0.0 0.0 -7.1250 0.0 0.0 -10.1225 64.3731 4.7722 -0.0000 0.0000 0.0000 -86.9977 -8.3209 -42.4905 -28.7669 -39.8127 -10.6111 -28.2394 4.2147 12.8276 0.0 0.0 0.0 7.1250 0.0 -0.0 -0.8699 44.4697 -0.0114
-1.8684 18.6920 -0.4147 3.0442 3.8521 0.1422 0.0000 0.0000 0.0000 -7.1819 -6.8776 -2.9531 1.9647 8.7921 25.1471 0.0481 -4.3258 7.7544 1.7017 -8.2149 -23.3688 0.0000 0.0000 0.0000 4.3008 12.7821 -4.3071 -3.6516 -11.6817 34.6151 0.3061 -10.2883 -0.2795 -0.0161 -0.8187 2.2502 -4.3476 -1.2976 7.9164 1.5071 -2.0819 -1.3663 4.2882 -0.8577 -5.6670 -10.8058 -2.4668 -25.6943 5.6104 -0.7878 23.2960 3.7795 -0.5754 11.9933 0.0000 0.0000 0.0000 92.6865 -3.1095 37.4233 26.1224 -37.3294 8.9618 23.0415 -4.3179 -31.9431 0.0 0.0 0.0 -7.1250 0.0 0.0 -11.1144 63.7681 5.0884 0.0000 0.0000 0.0000 -96.9245 -10.5242 -47.498 -29.9555 -40.8552 -11.3805 -28.7688 5.0815 12.5311 0.0 0.0 0.0 7.1250 0.0 -0.0 -1.3881 44.2034 -0.0273
